<svg width="1200" height="1600" viewBox="0 0 1200 1600" fill="none" xmlns="http://www.w3.org/2000/svg">
<path fill-rule="evenodd" clip-rule="evenodd" d="M564.785 1445.19C555.887 1459.17 537.343 1463.29 523.367 1454.39C511.665 1446.94 506.875 1432.73 510.847 1420.1L510.896 1419.54L510.995 1418.22L511.068 1417.06C511.282 1413.29 511.409 1408.17 511.444 1401.85L511.452 1399.7L511.453 1396.7C511.423 1381.58 510.953 1361.4 510.104 1337.63L509.927 1332.74L509.668 1325.95C508.051 1284.37 505.469 1235.48 503.155 1200.84L502.686 1193.96L502.295 1188.45C501.096 1171.93 513.52 1157.56 530.046 1156.36C546.571 1155.16 560.939 1167.59 562.137 1184.11C564.567 1217.61 567.469 1270.52 569.337 1316.44L569.623 1323.62L569.888 1330.58C570.71 1352.78 571.229 1372.19 571.396 1387.87L571.435 1392.37L571.453 1396.58C571.469 1404.85 571.363 1411.82 571.12 1417.47L571.034 1419.3L570.97 1420.47C570.763 1424.11 570.482 1427.22 570.082 1429.95C569.228 1435.76 568.134 1439.93 564.785 1445.19ZM511.258 1418.88C511.994 1416.85 512.963 1414.87 514.171 1412.97C512.218 1416.04 511.448 1417.84 511.044 1419.49L511.258 1418.88Z" fill="#E6BC98"/>
<path d="M645.904 1143.45C650.039 1200.46 653.412 1342.53 653.412 1426.44C653.412 1443.01 666.844 1456.44 683.412 1456.44C699.981 1456.44 713.412 1443.01 713.412 1426.44L713.408 1421.26L713.387 1413.4C713.074 1327.25 709.799 1194.97 705.746 1139.11C704.548 1122.58 690.179 1110.16 673.654 1111.36C657.129 1112.56 644.705 1126.93 645.904 1143.45Z" fill="#E6BC98"/>
<path d="M603.594 1060.45C670.89 1060.45 725.445 1032.35 725.445 997.695C725.445 963.036 670.89 934.939 603.594 934.939C536.297 934.939 481.743 963.036 481.743 997.695C481.743 1032.35 536.297 1060.45 603.594 1060.45Z" fill="#020202"/>
<path d="M402.251 1486.73C402.05 1463.78 405.177 1449.82 425.126 1440.44C445.076 1431.06 463.867 1413.03 498.381 1397.57C498.381 1397.57 502.924 1396.72 510.319 1400.72C516.63 1404.13 524.735 1412.5 536.949 1412.4C550.212 1412.28 562.03 1409.47 569.373 1405.62C572.546 1396.93 579.583 1396.87 579.583 1396.87C579.583 1396.87 589.493 1415.73 589.658 1434.68C589.823 1453.62 589.807 1485.09 589.807 1485.09L402.251 1486.73Z" fill="#161616"/>
<path d="M477.134 1405.45C475.046 1404.53 472.825 1406.45 473.432 1408.65L476.429 1419.51L464.42 1415.64C462.673 1415.08 460.883 1416.38 460.883 1418.22V1429.37L451.886 1424.5C450.083 1423.52 447.89 1424.83 447.89 1426.88V1440.42C447.89 1441.91 449.102 1443.13 450.597 1443.13C452.092 1443.13 453.304 1441.91 453.304 1440.42V1431.43L462.3 1436.3C464.104 1437.28 466.297 1435.97 466.297 1433.92V1421.94L479.541 1426.21C481.591 1426.87 483.554 1424.99 482.981 1422.91L480.167 1412.71L493.354 1418.53C495.144 1419.32 497.154 1418.01 497.154 1416.05L497.151 1415.02C497.131 1411.22 496.985 1408.87 496.468 1406.06C496.086 1403.99 495.528 1402.08 494.755 1400.34C494.148 1398.97 492.548 1398.36 491.182 1398.97C489.816 1399.57 489.201 1401.17 489.809 1402.54C490.395 1403.86 490.835 1405.36 491.143 1407.04C491.402 1408.45 491.555 1409.75 491.641 1411.28L491.67 1411.87L477.134 1405.45Z" fill="white"/>
<path d="M409.798 1442.2C415.919 1439.98 422.401 1438.3 434.828 1435.48L429.547 1450.69L429.698 1468.01L394.326 1468.32C392.882 1468.33 390.303 1466.41 391.534 1458.6C393.073 1448.84 401.101 1445.35 409.798 1442.2Z" fill="#161616"/>
<path d="M590.399 1482.13L589.372 1463.91L430.767 1466.38L391.22 1463.48L390.012 1477.45C389.595 1482.28 393.214 1486.5 398.044 1486.84L430.965 1489.12L586.142 1486.71C588.603 1486.67 590.538 1484.59 590.399 1482.13Z" fill="#808080"/>
<path d="M819.906 1488.49C820.106 1465.54 816.979 1451.58 797.03 1442.2C777.08 1432.82 758.289 1414.79 723.775 1399.33C723.775 1399.33 719.232 1398.48 711.837 1402.47C705.527 1405.89 697.421 1414.26 685.207 1414.15C671.945 1414.04 660.126 1411.23 652.783 1407.37C649.611 1398.68 642.573 1398.62 642.573 1398.62C642.573 1398.62 632.664 1417.48 632.498 1436.43C632.333 1455.38 632.35 1486.85 632.35 1486.85L819.906 1488.49Z" fill="#161616"/>
<path d="M739.174 1424.67C738.602 1426.75 740.565 1428.63 742.614 1427.97L755.86 1423.7V1435.68C755.86 1437.73 758.053 1439.04 759.856 1438.06L768.853 1433.19V1442.17C768.853 1443.66 770.065 1444.88 771.56 1444.88C773.055 1444.88 774.267 1443.66 774.267 1442.17V1428.64C774.267 1426.59 772.074 1425.28 770.27 1426.26L761.274 1431.13V1419.98C761.274 1418.14 759.484 1416.84 757.736 1417.4L745.727 1421.27L748.724 1410.41C749.331 1408.21 747.11 1406.29 745.022 1407.21L730.486 1413.63C730.565 1411.82 730.723 1410.36 731.018 1408.77C731.326 1407.1 731.765 1405.6 732.348 1404.29C732.954 1402.92 732.338 1401.32 730.971 1400.72C729.605 1400.11 728.006 1400.73 727.4 1402.09C726.632 1403.82 726.076 1405.72 725.695 1407.78C725.127 1410.85 725.002 1413.37 725.002 1417.81C725.002 1419.77 727.012 1421.08 728.801 1420.29L741.989 1414.47L739.174 1424.67Z" fill="white"/>
<path d="M812.358 1443.96C806.237 1441.74 799.755 1440.06 787.328 1437.24L792.609 1452.45L792.458 1469.77L827.831 1470.08C829.274 1470.09 831.853 1468.16 830.622 1460.36C829.083 1450.6 821.055 1447.11 812.358 1443.96Z" fill="#161616"/>
<path d="M631.757 1483.89L632.784 1465.67L791.389 1468.13L830.936 1465.23L832.144 1479.21C832.561 1484.03 828.943 1488.26 824.112 1488.59L791.191 1490.87L636.014 1488.46C633.553 1488.43 631.619 1486.35 631.757 1483.89Z" fill="#808080"/>
<path d="M454.948 964.539L585.626 978.024V1390.83H493.953L454.948 964.539Z" fill="#020202"/>
<path d="M605.268 978.986H746.383L733.933 1393.57H639.987L605.268 978.986Z" fill="#020202"/>
<path d="M476.225 992.608C476.225 1002.91 484.047 1011.52 494.298 1012.51L586.999 1021.49C595.797 1022.34 604.655 1022.37 613.461 1021.6L717.604 1012.42C728.153 1011.49 736.149 1002.5 735.839 991.914L724.792 614.181C724.476 603.368 715.619 594.766 704.801 594.766H496.225C485.179 594.766 476.225 603.72 476.225 614.766V992.608Z" fill="#020202"/>
<path d="M597.351 677.715C636.025 677.715 667.376 645.981 667.376 606.836C667.376 567.691 636.025 535.957 597.351 535.957C558.677 535.957 527.326 567.691 527.326 606.836C527.326 645.981 558.677 677.715 597.351 677.715Z" fill="#2D2F32"/>
<rect x="558.923" y="519.973" width="76.8567" height="115.285" rx="38.4283" fill="#E6BC98"/>
<path d="M488.235 725.374L491.31 723.22C500.737 716.604 506.659 712.106 513.217 706.181C522.218 698.049 530.004 689.075 536.801 678.57C549.852 658.4 544.081 631.469 523.911 618.417C503.943 605.497 477.348 611.024 464.154 630.707L463.325 631.968L462.889 632.614C458.503 639.011 453.447 643.475 441.917 651.596L437.6 654.622L434.367 656.905C425.744 663.038 420.555 667.113 414.346 672.876C404.122 682.364 395.575 693.046 388.482 705.813L383.546 720.116C367.672 820.078 361.776 916.889 371.086 995.082C373.926 1018.94 395.568 1035.97 419.424 1033.13C443.279 1030.29 460.316 1008.65 457.476 984.796C449.627 918.87 454.317 833.828 467.699 745.189L468.107 742.502C471.987 737.382 477.293 733.051 488.235 725.374Z" fill="#E6BC98"/>
<path d="M728.579 740.739L729.939 749.445L731.093 756.938C737.264 797.259 741.127 827.269 743.897 858.64L744.188 861.995L744.469 865.369C748.18 910.769 748.313 950.188 744.312 983.797C741.472 1007.65 758.509 1029.29 782.365 1032.13C806.221 1034.97 827.862 1017.94 830.702 994.081C835.647 952.545 835.313 905.822 830.724 852.86L830.347 848.602C826.84 809.675 821.799 773.004 813.242 719.117L808.306 704.813L807.351 703.107L806.711 701.979C796.881 684.725 785.995 669.676 765.997 644.241L757.837 633.877C742.492 614.346 737.266 607.298 730.801 597.307C717.75 577.137 690.819 571.366 670.648 584.417C650.478 597.469 644.707 624.4 657.759 644.57L659.141 646.695C666.876 658.518 673.16 666.928 689.495 687.714L698.445 699.084L701.258 702.677C714.393 719.509 722.349 730.474 728.579 740.739Z" fill="#E6BC98"/>
<path d="M557.443 702.509L470.63 882.672C470.63 882.672 394.277 840.835 364.99 813.641C364.99 813.641 377.042 744.609 394.277 681.59C404.271 645.047 428.349 616.506 446.816 598.975C461.612 584.929 480.959 577.404 501.008 573.625L538.616 566.537L557.443 702.509Z" fill="#525252"/>
<path d="M365.1 812.58C367.175 795.764 383.956 784.919 400.14 789.935L442.237 802.981C455.964 807.235 465.046 820.271 464.282 834.622L464.066 838.67C463.982 840.242 463.78 841.805 463.462 843.347L440.992 952.148C439.047 961.566 430.931 968.444 421.322 968.82L345.456 971.784L365.1 812.58Z" fill="#525252"/>
<path d="M450.243 649.972C453.479 603.954 492.024 568.275 538.156 568.275C547.365 568.275 555.815 573.532 559.841 581.815L589.868 643.583C589.868 643.583 567.903 764.911 567.903 824.53C567.903 874.691 557.537 995.935 554.248 1033.14C553.718 1039.14 548.234 1043.41 542.279 1042.5L439.075 1026.76C433.814 1025.96 429.995 1021.33 430.2 1016.01L437.161 836.035L450.243 649.972Z" fill="#2D2F32"/>
<path d="M576.845 644.162C557.717 801.736 543.324 979.136 543.325 1034.07L556.922 1034.07C556.921 979.801 571.276 802.875 590.343 645.801L576.845 644.162Z" fill="#525252"/>
<path d="M551.663 1048.1L433.472 1035.61C430.812 1035.33 428.792 1033.09 428.792 1030.41V1012.11L557.443 1025.52V1042.9C557.443 1046.01 554.752 1048.43 551.663 1048.1Z" fill="#525252"/>
<path d="M589.867 650.239L554.305 558.939L510.375 572.014V629.42L589.867 650.239Z" fill="#525252"/>
<path d="M642.751 704.247L729.563 884.411C729.563 884.411 805.917 842.573 835.203 815.379C835.203 815.379 823.151 746.347 805.917 683.328C794.561 641.804 765.02 610.613 746.189 594.166C735.665 584.974 722.489 579.756 708.757 577.168L661.578 568.275L642.751 704.247Z" fill="#525252"/>
<path d="M834.898 814.484C832.823 797.669 816.043 786.824 799.858 791.839L757.762 804.885C744.035 809.139 734.952 822.175 735.717 836.526L735.933 840.574C736.016 842.146 736.218 843.709 736.537 845.251L759.007 954.052C760.952 963.47 769.068 970.349 778.677 970.724L854.542 973.688L834.898 814.484Z" fill="#525252"/>
<path d="M741.474 644.217C737.073 602.49 701.883 570.816 659.925 570.816C651.33 570.816 643.489 575.723 639.731 583.453L609.266 646.124C609.266 646.124 631.231 767.452 631.231 827.071C631.231 877.232 641.597 998.476 644.886 1035.68C645.416 1041.68 650.9 1045.95 656.855 1045.04L760.059 1029.3C765.32 1028.5 769.139 1023.87 768.933 1018.56L761.973 838.576L741.474 644.217Z" fill="#2D2F32"/>
<path d="M608.805 647.801C627.872 804.875 642.227 981.801 642.225 1036.07L655.823 1036.07C655.824 981.136 641.431 803.736 622.303 646.162L608.805 647.801Z" fill="#525252"/>
<path d="M648.528 1051.76L766.719 1039.27C769.38 1038.99 771.399 1036.75 771.399 1034.07V1015.77L642.749 1029.18V1046.56C642.749 1049.67 645.44 1052.09 648.528 1051.76Z" fill="#525252"/>
<path d="M610.327 651.166L637.281 558.939L688.77 565.939L688.771 633.967L610.327 651.166Z" fill="#525252"/>
<path d="M523.323 687.869L580.927 656.035L555.156 854.613L523.323 687.869Z" fill="#525252"/>
<path d="M675.825 687.869L618.222 656.035L643.992 854.613L675.825 687.869Z" fill="#525252"/>
<path d="M494.662 886L471 970.135L484.089 973.816L507.751 889.681L494.662 886Z" fill="#525252"/>
<path d="M737.074 464.301C769.806 464.301 796.341 437.766 796.341 405.034C796.341 372.302 769.806 345.768 737.074 345.768C704.342 345.768 677.808 372.302 677.808 405.034C677.808 437.766 704.342 464.301 737.074 464.301Z" fill="#D4AA78"/>
<path d="M468.074 467.301C435.342 467.301 408.808 440.766 408.808 408.034C408.808 375.302 435.342 348.768 468.074 348.768C500.806 348.768 527.341 375.302 527.341 408.034C527.341 440.766 500.806 467.301 468.074 467.301Z" fill="#D4AA78"/>
<path d="M442.594 299.904C442.594 213.12 512.946 142.768 599.73 142.768C689.474 142.768 760.991 217.801 756.686 307.441L750.044 445.768C746.95 510.21 700.713 564.424 637.568 577.651C615.248 582.326 592.13 581.545 570.177 575.374L566.109 574.231C504.382 556.88 459.126 504.138 451.353 440.491L442.594 368.768V299.904Z" fill="#E6BC98"/>
<path d="M572.069 501.499C591.658 512.381 614.778 512.1 639.723 501.894C643.659 500.284 645.544 495.789 643.934 491.853C642.324 487.917 637.828 486.032 633.893 487.642C612.964 496.203 594.648 496.427 579.547 488.037C575.83 485.972 571.142 487.312 569.077 491.029C567.012 494.746 568.351 499.434 572.069 501.499Z" fill="#C99584"/>
<path d="M609.219 207.768C533.017 207.768 468.237 227.664 464.198 283.199C458.18 365.932 454.792 372.587 443.883 334.22C442.221 328.372 441.121 275.331 440.883 269.268C440.883 122.922 561.706 122.922 609.219 122.922C648.159 154.608 685.43 207.768 609.219 207.768Z" fill="#272727"/>
<path d="M440.892 283.028C440.629 274.962 445.777 268.254 452.22 268.254C458.906 268.254 464.138 275.45 463.506 283.78L452.831 424.895C452.652 427.254 451.073 429.047 449.188 429.047C447.219 429.047 445.609 427.109 445.524 424.658L440.892 283.028Z" fill="#272727"/>
<path d="M761.674 282.365C761.937 274.661 756.789 268.254 750.346 268.254C743.66 268.254 738.428 275.127 739.059 283.083L749.735 417.866C749.914 420.119 751.493 421.831 753.378 421.831C755.347 421.831 756.957 419.981 757.042 417.64L761.674 282.365Z" fill="#272727"/>
<path d="M609.808 203.767C688.33 203.767 726.57 235.201 729.808 291.767C737.837 336.129 748.255 401.699 766.808 269.767C766.808 63.0448 627.971 203.767 579.011 203.767C538.885 235.453 531.276 203.767 609.808 203.767Z" fill="#272727"/>
<path d="M686.504 147.528L707.869 170.149L600.845 163.551L498.808 191.357L492.624 178.161L498.802 173.919L493.943 163.551H504.337L496.827 147.528H510.19L507.417 135.274H519.295L520.605 123.021L534.621 126.791L534.799 119.251H547.419L543.444 110.768L564.494 119.251L564.973 110.768L576.372 119.251L579.82 110.768L597.901 119.251L602.834 110.768L616.46 119.251H623.142L634.099 126.791L633.535 119.251L653.664 135.274L660.064 131.504L679.442 149.884L686.504 147.528Z" fill="#272727"/>
<path d="M692.941 336.094C698.435 336.659 703.346 332.663 703.911 327.169C704.475 321.675 700.479 316.764 694.985 316.199L676.28 314.277L635.05 322.319C629.629 323.376 626.092 328.627 627.149 334.048C628.206 339.469 633.458 343.006 638.878 341.949L677.192 334.476L692.941 336.094Z" fill="#393939"/>
<path d="M563.665 341.949C569.086 343.006 574.337 339.469 575.394 334.048C576.451 328.627 572.914 323.376 567.493 322.319L526.263 314.277L507.558 316.199C502.064 316.764 498.068 321.675 498.632 327.169C499.197 332.663 504.108 336.659 509.602 336.094L525.351 334.476L563.665 341.949Z" fill="#393939"/>
<path d="M589.526 388.576C582.362 401.216 577.707 418.633 579.652 431.892C582.583 451.872 598.97 461.143 625.728 455.466L622.2 438.836C612.314 440.934 605.572 440.454 601.621 438.218C598.784 436.614 597.117 433.819 596.472 429.424C595.154 420.441 598.856 406.592 604.316 396.959L589.526 388.576Z" fill="#D4AA78"/>
<path d="M511.306 214.637L517.013 184.638L524.032 146.652L701.189 176.661L610.894 234.131L611.525 216.677L594.164 224.476L591.382 205.52L570.636 221.682L561.401 210.725L535.857 217.552L535.828 207.688L511.306 214.637Z" fill="#272727"/>
<path d="M515.111 385.273L515.497 385.089C515.695 384.996 515.929 384.889 516.196 384.77C517.484 384.197 518.955 383.617 520.572 383.074C525.152 381.536 529.902 380.619 534.494 380.619C539.087 380.619 543.836 381.536 548.416 383.074C550.033 383.617 551.505 384.197 552.792 384.77L553.168 384.94L553.762 385.218C553.884 385.276 553.986 385.326 554.066 385.367L554.199 385.436C557.611 387.253 561.851 385.96 563.668 382.547C565.485 379.135 564.192 374.896 560.779 373.079L560.327 372.845L559.952 372.661C559.549 372.465 559.06 372.236 558.489 371.982C556.811 371.234 554.929 370.493 552.872 369.802C546.958 367.816 540.758 366.619 534.494 366.619C528.23 366.619 522.031 367.816 516.116 369.802C514.06 370.493 512.177 371.234 510.499 371.982L509.956 372.227L509.245 372.56C508.813 372.767 508.466 372.942 508.209 373.079C504.797 374.896 503.504 379.135 505.321 382.547C507.059 385.811 511.013 387.136 514.34 385.655L514.566 385.55L515.111 385.273Z" fill="#393939"/>
<path d="M640.42 385.273L640.806 385.089C641.004 384.996 641.238 384.889 641.505 384.77C642.792 384.197 644.264 383.617 645.881 383.074C650.461 381.536 655.211 380.619 659.803 380.619C664.395 380.619 669.145 381.536 673.725 383.074C675.342 383.617 676.814 384.197 678.101 384.77L678.477 384.94L679.071 385.218C679.193 385.276 679.295 385.326 679.375 385.367L679.508 385.436C682.92 387.253 687.16 385.96 688.977 382.547C690.794 379.135 689.5 374.896 686.088 373.079L685.636 372.845L685.261 372.661C684.858 372.465 684.368 372.236 683.798 371.982C682.12 371.234 680.237 370.493 678.181 369.802C672.267 367.816 666.067 366.619 659.803 366.619C653.539 366.619 647.34 367.816 641.425 369.802C639.369 370.493 637.486 371.234 635.808 371.982L635.265 372.227L634.554 372.56C634.122 372.767 633.775 372.942 633.518 373.079C630.106 374.896 628.812 379.135 630.629 382.547C632.367 385.811 636.322 387.136 639.649 385.655L639.874 385.55L640.42 385.273Z" fill="#393939"/>
<path d="M702.839 158.534C702.839 134.931 668.184 116.855 650.856 110.768C654.912 112.465 663.12 120.741 663.501 140.271C663.882 159.8 645.864 168.077 636.808 169.774C658.818 175.862 702.838 182.137 702.839 158.534Z" fill="#272727"/>
<path d="M714.775 177.171C731.465 160.482 711.58 136.132 699.551 126.043C702.174 128.597 704.058 137.189 690.608 151.126C677.158 165.062 654.321 164.9 644.584 163.077C661.027 174.729 698.085 193.861 714.775 177.171Z" fill="#272727"/>
</svg>
